# xmcd
#
# Track frame offsets:
#	183
#	12883
#	26493
#	38430
#	49950
#	63738
#	77408
#	89110
#	102380
#	120800
#
# Disc length: 1804 seconds
#
# Revision: 0
# Processed by: cddbd v1.5.2PL0 Copyright (c) Steve Scherf et al.
# Submitted via: audiograbber 1.83.01
#
DISCID=74070a0a
DTITLE=Benny Berry - When The Trains Still Ran Through Dixie
DYEAR=1993
DGENRE=Country
TTITLE0=All The Things She Can't Do
TTITLE1=Friends Just Don't Treat Friends That way
TTITLE2=Maybe, Maybe Not
TTITLE3=Heart Don't Start Stoppin'  On Me Now
TTITLE4=Put Me In Your Pocket
TTITLE5=In The Garden
TTITLE6=Jesus Takes A Hold
TTITLE7=West Texas Love Song
TTITLE8=In My Next Life
TTITLE9=When The Trains Still Ran Through Dixie
EXTD=
EXTT0=
EXTT1=
EXTT2=
EXTT3=
EXTT4=
EXTT5=
EXTT6=
EXTT7=
EXTT8=
EXTT9=
PLAYORDER=
